<?xml version="1.0" encoding="iso-8859-1"?>
<!-- Generator: Adobe Illustrator 19.0.0, SVG Export Plug-In . SVG Version: 6.00 Build 0)  -->
<svg version="1.1" id="Capa_1" xmlns="http://www.w3.org/2000/svg" xmlns:xlink="http://www.w3.org/1999/xlink" x="0px" y="0px"
	 viewBox="0 0 480 480" style="enable-background:new 0 0 480 480;" xml:space="preserve">
<rect x="200" y="160" style="fill:#EBE5DD;" width="80" height="80"/>
<rect x="184" y="240" style="fill:#5AAAE7;" width="112" height="160"/>
<rect x="296" y="312" style="fill:#EBE5DD;" width="160" height="88"/>
<g>
	<path style="fill:#FFD422;" d="M424,400h-32v-40c0-8.837,7.163-16,16-16h0c8.837,0,16,7.163,16,16V400z"/>
	<path style="fill:#FFD422;" d="M360,400h-32v-40c0-8.837,7.163-16,16-16h0c8.837,0,16,7.163,16,16V400z"/>
</g>
<rect x="24" y="312" style="fill:#EBE5DD;" width="160" height="88"/>
<g>
	<path style="fill:#FFD422;" d="M152,400h-32v-40c0-8.837,7.163-16,16-16h0c8.837,0,16,7.163,16,16V400z"/>
	<path style="fill:#FFD422;" d="M88,400H56v-40c0-8.837,7.163-16,16-16h0c8.837,0,16,7.163,16,16V400z"/>
</g>
<path style="fill:#EBE5DD;" d="M264,400h-48V296c0-13.255,10.745-24,24-24h0c13.255,0,24,10.745,24,24V400z"/>
<g>
	<polygon style="fill:#F40E34;" points="184,312 8,312 8,296 64,240 184,240 	"/>
	<polygon style="fill:#F40E34;" points="296,312 472,312 472,296 416,240 296,240 	"/>
	<polygon style="fill:#F40E34;" points="184,168 240,112 296,168 	"/>
</g>
<rect x="232" y="40" style="fill:#884D00;" width="16" height="72"/>
<polygon style="fill:#FFD422;" points="240,48 248,48 288,64 248,80 240,80 "/>
<polyline style="fill:#69C229;" points="24,400 8,400 8,432 472,432 472,400 456,400 "/>
<g>
	<rect x="24" y="312" style="fill:#D4C8B8;" width="160" height="24"/>
	<rect x="296" y="312" style="fill:#D4C8B8;" width="160" height="24"/>
</g>
<rect x="296" y="240" style="fill:#A6001E;" width="24" height="72"/>
<g>
	<rect x="296" y="336" style="fill:#D4C8B8;" width="24" height="64"/>
	<path style="fill:#D4C8B8;" d="M240,272L240,272c-13.255,0-24,10.745-24,24v104h24V272z"/>
</g>
<circle style="fill:#FFD422;" cx="240" cy="296" r="24"/>
<g>
	<path style="fill:#E7B900;" d="M224,304c0-13.255,10.745-24,24-24c4.571,0,8.799,1.347,12.435,3.565
		C256.221,276.656,248.684,272,240,272c-13.255,0-24,10.745-24,24c0,8.684,4.656,16.221,11.565,20.435
		C225.347,312.799,224,308.571,224,304z"/>
	<path style="fill:#E7B900;" d="M72,344L72,344c-8.837,0-16,7.163-16,16v40h16V344z"/>
	<path style="fill:#E7B900;" d="M136,344L136,344c-8.837,0-16,7.163-16,16v40h16V344z"/>
	<path style="fill:#E7B900;" d="M344,344L344,344c-8.837,0-16,7.163-16,16v40h16V344z"/>
	<path style="fill:#E7B900;" d="M408,344L408,344c-8.837,0-16,7.163-16,16v40h16V344z"/>
</g>
<rect x="8" y="400" style="fill:#5EAC24;" width="464" height="16"/>
<rect x="200" y="168" style="fill:#D4C8B8;" width="80" height="16"/>
<path style="fill:#F40E34;" d="M229.656,221.656l-11.313-11.313L232,196.688V176h16v24c0,2.121-0.844,4.156-2.344,5.656
	L229.656,221.656z"/>
<g>
	<rect x="32" y="288" style="fill:#FFFFFF;" width="16" height="16"/>
	<rect x="72" y="288" style="fill:#FFFFFF;" width="96" height="16"/>
	<rect x="296" y="256" style="fill:#FFFFFF;" width="88" height="16"/>
	<rect x="400" y="256" style="fill:#FFFFFF;" width="16" height="16"/>
</g>
<path d="M232,196.688l-13.656,13.656l11.313,11.313l16-16c1.5-1.5,2.344-3.535,2.344-5.656v-24h-16V196.688z"/>
<path d="M472,320c4.418,0,8-3.582,8-8v-16c0-2.121-0.844-4.156-2.344-5.656l-56-56c-1.5-1.5-3.535-2.344-5.656-2.344H296h-8v-60.688
	l2.344,2.344l11.313-11.313L248,108.688V88c1.02,0,2.027-0.195,2.973-0.57l40-16C294.008,70.211,296,67.27,296,64
	s-1.992-6.211-5.027-7.43l-40-16C250.027,40.195,249.02,40,248,40h-8h-8v68.688l-53.656,53.656l11.313,11.313l2.344-2.344V232h-8H64
	c-2.121,0-4.156,0.844-5.656,2.344l-56,56C0.844,291.844,0,293.879,0,296v16c0,4.418,3.582,8,8,8h8v72H8c-4.418,0-8,3.582-8,8v32
	c0,4.418,3.582,8,8,8h464c4.418,0,8-3.582,8-8v-32c0-4.418-3.582-8-8-8h-8v-72H472z M464,299.313V304h-8H304v-56h108.688
	L464,299.313z M416,392h-16v-32c0-4.41,3.59-8,8-8s8,3.59,8,8V392z M408,336c-13.234,0-24,10.766-24,24v32h-16v-32
	c0-13.234-10.766-24-24-24s-24,10.766-24,24v32h-16v-72h144v72h-16v-32C432,346.766,421.234,336,408,336z M352,392h-16v-32
	c0-4.41,3.59-8,8-8s8,3.59,8,8V392z M266.461,64L248,71.384V56.616L266.461,64z M240,123.313L268.688,152h-57.375L240,123.313z
	 M208,168h64v64h-64V168z M192,248h8h80h8v64v80h-16v-96c0-17.645-14.355-32-32-32s-32,14.355-32,32v96h-16v-80V248z M224,323.548
	c4.726,2.756,10.146,4.452,16,4.452s11.274-1.695,16-4.452V392h-32V323.548z M224,296c0-8.824,7.176-16,16-16s16,7.176,16,16
	s-7.176,16-16,16S224,304.824,224,296z M144,392h-16v-32c0-4.41,3.59-8,8-8s8,3.59,8,8V392z M136,336c-13.234,0-24,10.766-24,24v32
	H96v-32c0-13.234-10.766-24-24-24s-24,10.766-24,24v32H32v-72h144v72h-16v-32C160,346.766,149.234,336,136,336z M80,392H64v-32
	c0-4.41,3.59-8,8-8s8,3.59,8,8V392z M16,299.313L67.313,248H176v56H24h-8V299.313z M464,424H16v-16h8h32h32h32h32h32h32h48h32h32h32
	h32h32h32h8V424z"/>
<g>
</g>
<g>
</g>
<g>
</g>
<g>
</g>
<g>
</g>
<g>
</g>
<g>
</g>
<g>
</g>
<g>
</g>
<g>
</g>
<g>
</g>
<g>
</g>
<g>
</g>
<g>
</g>
<g>
</g>
</svg>
